<svg xmlns="http://www.w3.org/2000/svg" width="24" height="24" fill="none" viewBox="0 0 24 24"><g clip-path="url(#clip0)"><mask id="path-1-inside-1" fill="#fff"><path d="M12 24C11.7939 24.0005 11.5898 23.9602 11.3995 23.8814C11.2091 23.8025 11.0363 23.6867 10.8909 23.5406L10.0758 22.7255C10.0244 22.6736 9.95873 22.6383 9.88716 22.624C9.81559 22.6098 9.74139 22.6172 9.67406 22.6453L8.60906 23.0864C8.22472 23.2455 7.79292 23.2454 7.40862 23.0862C7.02432 22.9271 6.71896 22.6218 6.55969 22.2375L6.11859 21.1725C6.09084 21.105 6.04361 21.0472 5.98292 21.0067C5.92222 20.9661 5.85082 20.9445 5.77781 20.9447H4.62375C4.20793 20.9442 3.80928 20.7788 3.51524 20.4848C3.22121 20.1907 3.05581 19.7921 3.05531 19.3762V18.2231C3.05549 18.1502 3.03396 18.0789 2.99348 18.0183C2.95299 17.9577 2.89537 17.9106 2.82797 17.8828L1.76203 17.4408C1.37776 17.2815 1.07247 16.9762 0.913281 16.5918C0.754092 16.2075 0.754035 15.7758 0.913124 15.3914L1.35422 14.3259C1.38217 14.2586 1.38948 14.1844 1.37521 14.1129C1.36094 14.0414 1.32573 13.9757 1.27406 13.9242L0.459374 13.1091C0.1652 12.8148 -6.10352e-05 12.4158 -6.10352e-05 11.9998C-6.10352e-05 11.5837 0.1652 11.1847 0.459374 10.8905L1.27453 10.0753C1.32636 10.0239 1.36168 9.95826 1.37596 9.88669C1.39024 9.81513 1.38283 9.74092 1.35469 9.67359L0.913592 8.60859C0.754504 8.22425 0.75456 7.79245 0.91375 7.40815C1.07294 7.02385 1.37823 6.71849 1.7625 6.55922L2.8275 6.11765C2.89499 6.08999 2.9527 6.04284 2.99328 5.98223C3.03386 5.92161 3.05545 5.85028 3.05531 5.77734V4.62375C3.05581 4.20793 3.22121 3.80928 3.51524 3.51524C3.80928 3.22121 4.20793 3.05581 4.62375 3.05531H5.77687C5.84976 3.05549 5.92105 3.03396 5.98166 2.99348C6.04227 2.95299 6.08945 2.89537 6.11719 2.82797L6.55922 1.76203C6.71849 1.37776 7.02385 1.07247 7.40815 0.913281C7.79245 0.754092 8.22425 0.754035 8.60859 0.913124L9.67359 1.35422C9.74095 1.38224 9.81512 1.38958 9.88666 1.3753C9.9582 1.36103 10.0239 1.32578 10.0753 1.27406L10.8909 0.459374C11.1852 0.1652 11.5842 -6.10352e-05 12.0002 -6.10352e-05C12.4163 -6.10352e-05 12.8153 0.1652 13.1095 0.459374L13.9247 1.27453C13.9761 1.32631 14.0418 1.36159 14.1133 1.37586C14.1849 1.39014 14.2591 1.38277 14.3264 1.35469L15.3919 0.913592C15.7762 0.754504 16.208 0.75456 16.5923 0.91375C16.9766 1.07294 17.282 1.37823 17.4412 1.7625L17.8828 2.8275C17.9105 2.89499 17.9576 2.9527 18.0182 2.99328C18.0789 3.03386 18.1502 3.05545 18.2231 3.05531H19.3762C19.7921 3.05581 20.1907 3.22121 20.4848 3.51524C20.7788 3.80928 20.9442 4.20793 20.9447 4.62375V5.77687C20.9445 5.84976 20.966 5.92105 21.0065 5.98166C21.047 6.04227 21.1046 6.08945 21.172 6.11719L22.238 6.55922C22.6222 6.71849 22.9275 7.02385 23.0867 7.40815C23.2459 7.79245 23.246 8.22425 23.0869 8.60859L22.6458 9.67359C22.6177 9.74082 22.6103 9.8149 22.6244 9.88637C22.6386 9.95784 22.6738 10.0235 22.7255 10.0748L23.5406 10.8905C23.6863 11.0361 23.8019 11.2091 23.8808 11.3994C23.9597 11.5897 24.0003 11.7937 24.0003 11.9998C24.0003 12.2058 23.9597 12.4098 23.8808 12.6001C23.8019 12.7905 23.6863 12.9634 23.5406 13.1091L22.7255 13.9242C22.6738 13.9757 22.6386 14.0414 22.6243 14.1129C22.6101 14.1844 22.6174 14.2586 22.6453 14.3259L23.0864 15.3914C23.2455 15.7758 23.2454 16.2075 23.0863 16.5918C22.9271 16.9762 22.6218 17.2815 22.2375 17.4408L21.1725 17.8823C21.105 17.91 21.0473 17.9572 21.0067 18.0178C20.9661 18.0784 20.9445 18.1497 20.9447 18.2227V19.3758C20.9442 19.7916 20.7788 20.1903 20.4848 20.4843C20.1907 20.7783 19.7921 20.9437 19.3762 20.9442H18.2231C18.1501 20.944 18.0787 20.9656 18.018 21.0062C17.9573 21.0468 17.9101 21.1045 17.8823 21.172L17.4412 22.2375C17.282 22.6218 16.9766 22.9271 16.5923 23.0862C16.208 23.2454 15.7762 23.2455 15.3919 23.0864L14.3264 22.6453C14.2591 22.6172 14.1849 22.6099 14.1133 22.6241C14.0418 22.6384 13.9761 22.6737 13.9247 22.7255L13.1091 23.5406C12.9637 23.6867 12.7909 23.8025 12.6005 23.8814C12.4102 23.9602 12.2061 24.0005 12 24ZM9.81609 21.4162C10.0216 21.4167 10.2251 21.4576 10.4148 21.5366C10.6046 21.6157 10.7769 21.7314 10.9219 21.877L11.737 22.6922C11.8074 22.7592 11.9008 22.7965 11.9979 22.7965C12.095 22.7965 12.1884 22.7592 12.2587 22.6922L13.0781 21.877C13.2971 21.657 13.5766 21.5071 13.8811 21.4465C14.1855 21.3859 14.5011 21.4173 14.7877 21.5367L15.8527 21.9778C15.943 22.0152 16.0445 22.0153 16.1348 21.9779C16.2252 21.9406 16.297 21.8689 16.3345 21.7786L16.7756 20.7131C16.8939 20.4261 17.0948 20.1808 17.3529 20.0083C17.611 19.8358 17.9146 19.7441 18.225 19.7447H19.3781C19.4758 19.7446 19.5694 19.7057 19.6385 19.6366C19.7076 19.5676 19.7464 19.4739 19.7466 19.3762V18.2231C19.7459 17.9126 19.8378 17.6089 20.0104 17.3507C20.1831 17.0926 20.4287 16.8917 20.7159 16.7737L21.7805 16.3327C21.8253 16.3142 21.866 16.287 21.9002 16.2528C21.9345 16.2186 21.9617 16.1779 21.9803 16.1331C21.9988 16.0884 22.0084 16.0404 22.0083 15.9919C22.0083 15.9435 21.9987 15.8955 21.9802 15.8508L21.5391 14.7858C21.4198 14.4997 21.3882 14.1846 21.4484 13.8806C21.5085 13.5765 21.6578 13.2972 21.877 13.0781L22.6922 12.263C22.7265 12.2288 22.7537 12.1882 22.7723 12.1434C22.7908 12.0987 22.8004 12.0508 22.8004 12.0023C22.8004 11.9539 22.7908 11.906 22.7723 11.8612C22.7537 11.8165 22.7265 11.7759 22.6922 11.7417L21.877 10.9219C21.6569 10.7029 21.507 10.4234 21.4464 10.119C21.3858 9.81449 21.4172 9.49887 21.5367 9.21234L21.9778 8.14734C22.0152 8.05702 22.0153 7.95553 21.9779 7.86518C21.9406 7.77482 21.8689 7.70299 21.7786 7.66547L20.7131 7.2239C20.4261 7.10581 20.1807 6.90495 20.0083 6.64692C19.8358 6.38889 19.744 6.08536 19.7447 5.775V4.62375C19.7446 4.52607 19.7057 4.43243 19.6366 4.36336C19.5676 4.29429 19.4739 4.25544 19.3762 4.25531H18.2231C17.9126 4.25601 17.609 4.16422 17.3508 3.99166C17.0927 3.8191 16.8918 3.57358 16.7738 3.28641L16.3327 2.22187C16.3142 2.17709 16.287 2.13639 16.2528 2.1021C16.2186 2.06782 16.1779 2.04063 16.1331 2.02208C16.0884 2.00353 16.0404 1.99399 15.992 1.99401C15.9435 1.99403 15.8955 2.0036 15.8508 2.02219L14.7858 2.46328C14.4995 2.58223 14.1843 2.61339 13.8802 2.55279C13.5761 2.4922 13.297 2.34259 13.0781 2.12297L12.2606 1.30781C12.1903 1.24097 12.097 1.2037 12 1.2037C11.903 1.2037 11.8097 1.24097 11.7394 1.30781L10.9219 2.12297C10.7029 2.34307 10.4234 2.49299 10.119 2.5536C9.81449 2.61421 9.49887 2.58276 9.21234 2.46328L8.14734 2.02219C8.05724 1.9852 7.95619 1.9852 7.86609 2.02219C7.82127 2.04052 7.78054 2.06756 7.74626 2.10176C7.71199 2.13596 7.68484 2.17663 7.66641 2.22141L7.22484 3.28687C7.10675 3.57389 6.90589 3.81926 6.64786 3.99173C6.38983 4.16419 6.0863 4.25595 5.77594 4.25531H4.62375C4.52607 4.25544 4.43243 4.29429 4.36336 4.36336C4.29429 4.43243 4.25544 4.52607 4.25531 4.62375V5.77687C4.25601 6.08737 4.16422 6.39104 3.99166 6.64917C3.8191 6.9073 3.57358 7.1082 3.28641 7.22625L2.22187 7.66734C2.17709 7.68583 2.13639 7.71297 2.1021 7.7472C2.06782 7.78144 2.04063 7.8221 2.02208 7.86686C2.00353 7.91162 1.99399 7.9596 1.99401 8.00805C1.99403 8.0565 2.0036 8.10447 2.02219 8.14922L2.46328 9.21422C2.58287 9.5008 2.61436 9.81652 2.55375 10.1211C2.49314 10.4256 2.34317 10.7053 2.12297 10.9242L1.30781 11.7394C1.23874 11.8086 1.19995 11.9024 1.19995 12.0002C1.19995 12.098 1.23874 12.1918 1.30781 12.2611L2.12297 13.0781C2.34302 13.2971 2.49289 13.5766 2.5535 13.8811C2.61411 14.1855 2.5827 14.5011 2.46328 14.7877L2.02219 15.8527C1.98476 15.943 1.98472 16.0445 2.02207 16.1348C2.05943 16.2252 2.13112 16.297 2.22141 16.3345L3.28687 16.7761C3.57389 16.8942 3.81926 17.095 3.99173 17.3531C4.16419 17.6111 4.25595 17.9146 4.25531 18.225V19.3781C4.25544 19.4758 4.29429 19.5694 4.36336 19.6385C4.43243 19.7076 4.52607 19.7464 4.62375 19.7466H5.77687C6.08729 19.746 6.39086 19.8377 6.64896 20.0102C6.90706 20.1826 7.10802 20.428 7.22625 20.715L7.66734 21.78C7.68583 21.8248 7.71297 21.8655 7.7472 21.8998C7.78144 21.9341 7.8221 21.9612 7.86686 21.9798C7.91162 21.9983 7.9596 22.0079 8.00805 22.0079C8.0565 22.0078 8.10447 21.9983 8.14922 21.9797L9.21422 21.5386C9.40484 21.4586 9.60937 21.417 9.81609 21.4162Z"/></mask><path stroke="#ec1212" stroke-width="3" d="M12 24C11.7939 24.0005 11.5898 23.9602 11.3995 23.8814C11.2091 23.8025 11.0363 23.6867 10.8909 23.5406L10.0758 22.7255C10.0244 22.6736 9.95873 22.6383 9.88716 22.624C9.81559 22.6098 9.74139 22.6172 9.67406 22.6453L8.60906 23.0864C8.22472 23.2455 7.79292 23.2454 7.40862 23.0862C7.02432 22.9271 6.71896 22.6218 6.55969 22.2375L6.11859 21.1725C6.09084 21.105 6.04361 21.0472 5.98292 21.0067C5.92222 20.9661 5.85082 20.9445 5.77781 20.9447H4.62375C4.20793 20.9442 3.80928 20.7788 3.51524 20.4848C3.22121 20.1907 3.05581 19.7921 3.05531 19.3762V18.2231C3.05549 18.1502 3.03396 18.0789 2.99348 18.0183C2.95299 17.9577 2.89537 17.9106 2.82797 17.8828L1.76203 17.4408C1.37776 17.2815 1.07247 16.9762 0.913281 16.5918C0.754092 16.2075 0.754035 15.7758 0.913124 15.3914L1.35422 14.3259C1.38217 14.2586 1.38948 14.1844 1.37521 14.1129C1.36094 14.0414 1.32573 13.9757 1.27406 13.9242L0.459374 13.1091C0.1652 12.8148 -6.10352e-05 12.4158 -6.10352e-05 11.9998C-6.10352e-05 11.5837 0.1652 11.1847 0.459374 10.8905L1.27453 10.0753C1.32636 10.0239 1.36168 9.95826 1.37596 9.88669C1.39024 9.81513 1.38283 9.74092 1.35469 9.67359L0.913592 8.60859C0.754504 8.22425 0.75456 7.79245 0.91375 7.40815C1.07294 7.02385 1.37823 6.71849 1.7625 6.55922L2.8275 6.11765C2.89499 6.08999 2.9527 6.04284 2.99328 5.98223C3.03386 5.92161 3.05545 5.85028 3.05531 5.77734V4.62375C3.05581 4.20793 3.22121 3.80928 3.51524 3.51524C3.80928 3.22121 4.20793 3.05581 4.62375 3.05531H5.77687C5.84976 3.05549 5.92105 3.03396 5.98166 2.99348C6.04227 2.95299 6.08945 2.89537 6.11719 2.82797L6.55922 1.76203C6.71849 1.37776 7.02385 1.07247 7.40815 0.913281C7.79245 0.754092 8.22425 0.754035 8.60859 0.913124L9.67359 1.35422C9.74095 1.38224 9.81512 1.38958 9.88666 1.3753C9.9582 1.36103 10.0239 1.32578 10.0753 1.27406L10.8909 0.459374C11.1852 0.1652 11.5842 -6.10352e-05 12.0002 -6.10352e-05C12.4163 -6.10352e-05 12.8153 0.1652 13.1095 0.459374L13.9247 1.27453C13.9761 1.32631 14.0418 1.36159 14.1133 1.37586C14.1849 1.39014 14.2591 1.38277 14.3264 1.35469L15.3919 0.913592C15.7762 0.754504 16.208 0.75456 16.5923 0.91375C16.9766 1.07294 17.282 1.37823 17.4412 1.7625L17.8828 2.8275C17.9105 2.89499 17.9576 2.9527 18.0182 2.99328C18.0789 3.03386 18.1502 3.05545 18.2231 3.05531H19.3762C19.7921 3.05581 20.1907 3.22121 20.4848 3.51524C20.7788 3.80928 20.9442 4.20793 20.9447 4.62375V5.77687C20.9445 5.84976 20.966 5.92105 21.0065 5.98166C21.047 6.04227 21.1046 6.08945 21.172 6.11719L22.238 6.55922C22.6222 6.71849 22.9275 7.02385 23.0867 7.40815C23.2459 7.79245 23.246 8.22425 23.0869 8.60859L22.6458 9.67359C22.6177 9.74082 22.6103 9.8149 22.6244 9.88637C22.6386 9.95784 22.6738 10.0235 22.7255 10.0748L23.5406 10.8905C23.6863 11.0361 23.8019 11.2091 23.8808 11.3994C23.9597 11.5897 24.0003 11.7937 24.0003 11.9998C24.0003 12.2058 23.9597 12.4098 23.8808 12.6001C23.8019 12.7905 23.6863 12.9634 23.5406 13.1091L22.7255 13.9242C22.6738 13.9757 22.6386 14.0414 22.6243 14.1129C22.6101 14.1844 22.6174 14.2586 22.6453 14.3259L23.0864 15.3914C23.2455 15.7758 23.2454 16.2075 23.0863 16.5918C22.9271 16.9762 22.6218 17.2815 22.2375 17.4408L21.1725 17.8823C21.105 17.91 21.0473 17.9572 21.0067 18.0178C20.9661 18.0784 20.9445 18.1497 20.9447 18.2227V19.3758C20.9442 19.7916 20.7788 20.1903 20.4848 20.4843C20.1907 20.7783 19.7921 20.9437 19.3762 20.9442H18.2231C18.1501 20.944 18.0787 20.9656 18.018 21.0062C17.9573 21.0468 17.9101 21.1045 17.8823 21.172L17.4412 22.2375C17.282 22.6218 16.9766 22.9271 16.5923 23.0862C16.208 23.2454 15.7762 23.2455 15.3919 23.0864L14.3264 22.6453C14.2591 22.6172 14.1849 22.6099 14.1133 22.6241C14.0418 22.6384 13.9761 22.6737 13.9247 22.7255L13.1091 23.5406C12.9637 23.6867 12.7909 23.8025 12.6005 23.8814C12.4102 23.9602 12.2061 24.0005 12 24ZM9.81609 21.4162C10.0216 21.4167 10.2251 21.4576 10.4148 21.5366C10.6046 21.6157 10.7769 21.7314 10.9219 21.877L11.737 22.6922C11.8074 22.7592 11.9008 22.7965 11.9979 22.7965C12.095 22.7965 12.1884 22.7592 12.2587 22.6922L13.0781 21.877C13.2971 21.657 13.5766 21.5071 13.8811 21.4465C14.1855 21.3859 14.5011 21.4173 14.7877 21.5367L15.8527 21.9778C15.943 22.0152 16.0445 22.0153 16.1348 21.9779C16.2252 21.9406 16.297 21.8689 16.3345 21.7786L16.7756 20.7131C16.8939 20.4261 17.0948 20.1808 17.3529 20.0083C17.611 19.8358 17.9146 19.7441 18.225 19.7447H19.3781C19.4758 19.7446 19.5694 19.7057 19.6385 19.6366C19.7076 19.5676 19.7464 19.4739 19.7466 19.3762V18.2231C19.7459 17.9126 19.8378 17.6089 20.0104 17.3507C20.1831 17.0926 20.4287 16.8917 20.7159 16.7737L21.7805 16.3327C21.8253 16.3142 21.866 16.287 21.9002 16.2528C21.9345 16.2186 21.9617 16.1779 21.9803 16.1331C21.9988 16.0884 22.0084 16.0404 22.0083 15.9919C22.0083 15.9435 21.9987 15.8955 21.9802 15.8508L21.5391 14.7858C21.4198 14.4997 21.3882 14.1846 21.4484 13.8806C21.5085 13.5765 21.6578 13.2972 21.877 13.0781L22.6922 12.263C22.7265 12.2288 22.7537 12.1882 22.7723 12.1434C22.7908 12.0987 22.8004 12.0508 22.8004 12.0023C22.8004 11.9539 22.7908 11.906 22.7723 11.8612C22.7537 11.8165 22.7265 11.7759 22.6922 11.7417L21.877 10.9219C21.6569 10.7029 21.507 10.4234 21.4464 10.119C21.3858 9.81449 21.4172 9.49887 21.5367 9.21234L21.9778 8.14734C22.0152 8.05702 22.0153 7.95553 21.9779 7.86518C21.9406 7.77482 21.8689 7.70299 21.7786 7.66547L20.7131 7.2239C20.4261 7.10581 20.1807 6.90495 20.0083 6.64692C19.8358 6.38889 19.744 6.08536 19.7447 5.775V4.62375C19.7446 4.52607 19.7057 4.43243 19.6366 4.36336C19.5676 4.29429 19.4739 4.25544 19.3762 4.25531H18.2231C17.9126 4.25601 17.609 4.16422 17.3508 3.99166C17.0927 3.8191 16.8918 3.57358 16.7738 3.28641L16.3327 2.22187C16.3142 2.17709 16.287 2.13639 16.2528 2.1021C16.2186 2.06782 16.1779 2.04063 16.1331 2.02208C16.0884 2.00353 16.0404 1.99399 15.992 1.99401C15.9435 1.99403 15.8955 2.0036 15.8508 2.02219L14.7858 2.46328C14.4995 2.58223 14.1843 2.61339 13.8802 2.55279C13.5761 2.4922 13.297 2.34259 13.0781 2.12297L12.2606 1.30781C12.1903 1.24097 12.097 1.2037 12 1.2037C11.903 1.2037 11.8097 1.24097 11.7394 1.30781L10.9219 2.12297C10.7029 2.34307 10.4234 2.49299 10.119 2.5536C9.81449 2.61421 9.49887 2.58276 9.21234 2.46328L8.14734 2.02219C8.05724 1.9852 7.95619 1.9852 7.86609 2.02219C7.82127 2.04052 7.78054 2.06756 7.74626 2.10176C7.71199 2.13596 7.68484 2.17663 7.66641 2.22141L7.22484 3.28687C7.10675 3.57389 6.90589 3.81926 6.64786 3.99173C6.38983 4.16419 6.0863 4.25595 5.77594 4.25531H4.62375C4.52607 4.25544 4.43243 4.29429 4.36336 4.36336C4.29429 4.43243 4.25544 4.52607 4.25531 4.62375V5.77687C4.25601 6.08737 4.16422 6.39104 3.99166 6.64917C3.8191 6.9073 3.57358 7.1082 3.28641 7.22625L2.22187 7.66734C2.17709 7.68583 2.13639 7.71297 2.1021 7.7472C2.06782 7.78144 2.04063 7.8221 2.02208 7.86686C2.00353 7.91162 1.99399 7.9596 1.99401 8.00805C1.99403 8.0565 2.0036 8.10447 2.02219 8.14922L2.46328 9.21422C2.58287 9.5008 2.61436 9.81652 2.55375 10.1211C2.49314 10.4256 2.34317 10.7053 2.12297 10.9242L1.30781 11.7394C1.23874 11.8086 1.19995 11.9024 1.19995 12.0002C1.19995 12.098 1.23874 12.1918 1.30781 12.2611L2.12297 13.0781C2.34302 13.2971 2.49289 13.5766 2.5535 13.8811C2.61411 14.1855 2.5827 14.5011 2.46328 14.7877L2.02219 15.8527C1.98476 15.943 1.98472 16.0445 2.02207 16.1348C2.05943 16.2252 2.13112 16.297 2.22141 16.3345L3.28687 16.7761C3.57389 16.8942 3.81926 17.095 3.99173 17.3531C4.16419 17.6111 4.25595 17.9146 4.25531 18.225V19.3781C4.25544 19.4758 4.29429 19.5694 4.36336 19.6385C4.43243 19.7076 4.52607 19.7464 4.62375 19.7466H5.77687C6.08729 19.746 6.39086 19.8377 6.64896 20.0102C6.90706 20.1826 7.10802 20.428 7.22625 20.715L7.66734 21.78C7.68583 21.8248 7.71297 21.8655 7.7472 21.8998C7.78144 21.9341 7.8221 21.9612 7.86686 21.9798C7.91162 21.9983 7.9596 22.0079 8.00805 22.0079C8.0565 22.0078 8.10447 21.9983 8.14922 21.9797L9.21422 21.5386C9.40484 21.4586 9.60937 21.417 9.81609 21.4162Z" mask="url(#path-1-inside-1)"/><circle cx="14.4" cy="14.4" r="1.3" stroke="#ec1212"/><circle cx="9.59999" cy="9.59999" r="1.3" stroke="#ec1212"/><path stroke="#ec1212" stroke-linecap="round" stroke-width="1.5" d="M15.364 9C12.8787 11.4853 11.4853 12.8787 8.99999 15.364"/></g><defs><clipPath id="clip0"><path fill="#fff" d="M0 0H24V24H0z"/></clipPath></defs></svg>